<svg width="467" height="458" viewBox="0 0 467 458" fill="none" xmlns="http://www.w3.org/2000/svg">
<path d="M156.626 366.247C187.562 367.004 187.516 307.498 252.909 253.255C325.616 192.975 392.096 211.674 406.065 170.024C419.259 130.737 374.113 69.1337 321.408 49.6499C232.694 16.9013 108.836 98.4042 88.5128 198.534C72.7407 276.109 118.997 365.292 156.626 366.247Z" fill="#FAAE1B"/>
<path d="M437.455 190.898C409.538 177.548 385.23 231.863 303.367 254.597C212.359 279.848 159.351 235.583 129.563 267.87C101.447 298.318 117.432 373.002 157.55 412.346C225.096 478.529 371.461 454.845 430.977 371.799C477.112 307.469 471.399 207.167 437.455 190.898Z" fill="#EA3A60"/>
<path d="M202.58 361.678C204.037 344.047 170.073 342.102 141.281 302.984C109.286 259.491 122.16 222.168 98.8522 212.816C76.8664 203.984 40.2122 227.71 27.3464 257.145C5.71703 306.692 48.1306 380.081 104.604 394.997C148.357 406.568 200.789 383.123 202.58 361.678Z" fill="#0898E7"/>
</svg>
