<svg width="467" height="448" viewBox="0 0 467 448" fill="none" xmlns="http://www.w3.org/2000/svg">
<path d="M310.374 365.788C279.438 366.545 279.484 307.04 214.091 252.797C141.385 192.517 74.9047 211.216 60.9356 169.567C47.7409 130.279 92.8873 68.6764 145.592 49.1928C234.306 16.4442 358.164 97.9469 378.487 198.076C394.26 275.651 348.003 364.834 310.374 365.788Z" fill="#FAAE1B"/>
<path d="M29.5449 180.44C57.462 167.09 81.7698 221.404 163.633 244.139C254.641 269.39 307.649 225.125 337.438 257.411C365.554 287.86 349.568 362.543 309.45 401.887C241.904 468.07 95.5396 444.386 36.023 361.34C-10.1121 297.011 -4.39929 196.709 29.5449 180.44Z" fill="#EA3A60"/>
<path d="M264.42 361.221C262.963 343.591 296.927 341.646 325.718 302.527C357.714 259.034 344.84 221.712 368.148 212.359C390.134 203.527 426.788 227.253 439.654 256.688C461.283 306.235 418.869 379.625 362.396 394.541C318.643 406.112 266.211 382.666 264.42 361.221Z" fill="#0898E7"/>
</svg>
