<svg width="1258" height="381" viewBox="0 0 1258 381" fill="none" xmlns="http://www.w3.org/2000/svg">
<mask id="mask0_1_414" style="mask-type:alpha" maskUnits="userSpaceOnUse" x="4" y="0" width="1250" height="373">
<path fill-rule="evenodd" clip-rule="evenodd" d="M4 10.0171C4 4.49423 8.47715 0.0170898 14 0.0170898H1244C1249.52 0.0170898 1254 4.49424 1254 10.0171V362.017C1254 367.54 1249.52 372.017 1244 372.017H14C8.47717 372.017 4 367.54 4 362.017V10.0171Z" fill="#EA3A60"/>
</mask>
<g mask="url(#mask0_1_414)">
<g opacity="0.1">
<path d="M1269.9 158.06C1253.1 158.471 1253.13 126.168 1217.63 96.7217C1178.16 63.9979 1142.07 74.1486 1134.49 51.539C1127.32 30.2111 1151.83 -3.2307 1180.44 -13.8076C1228.6 -31.5856 1295.84 12.6592 1306.87 67.0154C1315.44 109.128 1290.33 157.542 1269.9 158.06Z" fill="white"/>
<path d="M-12.6777 158.061C4.11603 158.471 4.09105 126.168 39.5904 96.722C79.0602 63.9982 115.15 74.1489 122.733 51.5392C129.896 30.2114 105.388 -3.23045 76.7762 -13.8074C28.6166 -31.5854 -38.6214 12.6594 -49.654 67.0157C-58.2161 109.128 -33.1053 157.542 -12.6777 158.061Z" fill="white"/>
<path d="M1269.9 213.463C1253.1 213.052 1253.13 245.355 1217.63 274.801C1178.16 307.525 1142.07 297.375 1134.48 319.984C1127.32 341.312 1151.83 374.754 1180.44 385.331C1228.6 403.109 1295.84 358.864 1306.87 304.508C1315.43 262.395 1290.32 213.981 1269.9 213.463Z" fill="white"/>
<path d="M-12.6777 213.463C4.11603 213.052 4.09105 245.355 39.5904 274.801C79.0602 307.525 115.15 297.375 122.733 319.984C129.896 341.312 105.388 374.754 76.7762 385.331C28.6166 403.109 -38.6214 358.864 -49.654 304.508C-58.2161 262.395 -33.1053 213.981 -12.6777 213.463Z" fill="white"/>
</g>
</g>
</svg>
