<svg width="141" height="25" viewBox="0 0 141 25" fill="none" xmlns="http://www.w3.org/2000/svg">
<path opacity="0.8" d="M45.6599 16.36H50.1399V19H42.2399V4.96H45.6599V16.36ZM51.0911 13.4C51.0911 12.2533 51.3045 11.2467 51.7311 10.38C52.1711 9.51333 52.7645 8.84667 53.5111 8.38C54.2578 7.91333 55.0911 7.68 56.0111 7.68C56.7978 7.68 57.4845 7.84 58.0711 8.16C58.6711 8.48 59.1311 8.9 59.4511 9.42V7.84H62.8711V19H59.4511V17.42C59.1178 17.94 58.6511 18.36 58.0511 18.68C57.4645 19 56.7778 19.16 55.9911 19.16C55.0845 19.16 54.2578 18.9267 53.5111 18.46C52.7645 17.98 52.1711 17.3067 51.7311 16.44C51.3045 15.56 51.0911 14.5467 51.0911 13.4ZM59.4511 13.42C59.4511 12.5667 59.2111 11.8933 58.7311 11.4C58.2645 10.9067 57.6911 10.66 57.0111 10.66C56.3311 10.66 55.7511 10.9067 55.2711 11.4C54.8045 11.88 54.5711 12.5467 54.5711 13.4C54.5711 14.2533 54.8045 14.9333 55.2711 15.44C55.7511 15.9333 56.3311 16.18 57.0111 16.18C57.6911 16.18 58.2645 15.9333 58.7311 15.44C59.2111 14.9467 59.4511 14.2733 59.4511 13.42ZM72.1453 7.72C73.452 7.72 74.492 8.14667 75.2653 9C76.052 9.84 76.4453 11 76.4453 12.48V19H73.0453V12.94C73.0453 12.1933 72.852 11.6133 72.4653 11.2C72.0787 10.7867 71.5587 10.58 70.9053 10.58C70.252 10.58 69.732 10.7867 69.3453 11.2C68.9587 11.6133 68.7653 12.1933 68.7653 12.94V19H65.3453V7.84H68.7653V9.32C69.112 8.82667 69.5787 8.44 70.1653 8.16C70.752 7.86667 71.412 7.72 72.1453 7.72ZM78.1419 13.4C78.1419 12.2533 78.3552 11.2467 78.7819 10.38C79.2219 9.51333 79.8152 8.84667 80.5619 8.38C81.3086 7.91333 82.1419 7.68 83.0619 7.68C83.7952 7.68 84.4619 7.83333 85.0619 8.14C85.6752 8.44667 86.1552 8.86 86.5019 9.38V4.2H89.9219V19H86.5019V17.4C86.1819 17.9333 85.7219 18.36 85.1219 18.68C84.5352 19 83.8486 19.16 83.0619 19.16C82.1419 19.16 81.3086 18.9267 80.5619 18.46C79.8152 17.98 79.2219 17.3067 78.7819 16.44C78.3552 15.56 78.1419 14.5467 78.1419 13.4ZM86.5019 13.42C86.5019 12.5667 86.2619 11.8933 85.7819 11.4C85.3152 10.9067 84.7419 10.66 84.0619 10.66C83.3819 10.66 82.8019 10.9067 82.3219 11.4C81.8552 11.88 81.6219 12.5467 81.6219 13.4C81.6219 14.2533 81.8552 14.9333 82.3219 15.44C82.8019 15.9333 83.3819 16.18 84.0619 16.18C84.7419 16.18 85.3152 15.9333 85.7819 15.44C86.2619 14.9467 86.5019 14.2733 86.5019 13.42ZM96.6361 7.68C97.4228 7.68 98.1095 7.84 98.6961 8.16C99.2961 8.48 99.7561 8.9 100.076 9.42V7.84H103.496V18.98C103.496 20.0067 103.289 20.9333 102.876 21.76C102.476 22.6 101.856 23.2667 101.016 23.76C100.189 24.2533 99.1561 24.5 97.9161 24.5C96.2628 24.5 94.9228 24.1067 93.8961 23.32C92.8695 22.5467 92.2828 21.4933 92.1361 20.16H95.5161C95.6228 20.5867 95.8761 20.92 96.2761 21.16C96.6761 21.4133 97.1695 21.54 97.7561 21.54C98.4628 21.54 99.0228 21.3333 99.4361 20.92C99.8628 20.52 100.076 19.8733 100.076 18.98V17.4C99.7428 17.92 99.2828 18.3467 98.6961 18.68C98.1095 19 97.4228 19.16 96.6361 19.16C95.7161 19.16 94.8828 18.9267 94.1361 18.46C93.3895 17.98 92.7961 17.3067 92.3561 16.44C91.9295 15.56 91.7161 14.5467 91.7161 13.4C91.7161 12.2533 91.9295 11.2467 92.3561 10.38C92.7961 9.51333 93.3895 8.84667 94.1361 8.38C94.8828 7.91333 95.7161 7.68 96.6361 7.68ZM100.076 13.42C100.076 12.5667 99.8361 11.8933 99.3561 11.4C98.8895 10.9067 98.3161 10.66 97.6361 10.66C96.9561 10.66 96.3761 10.9067 95.8961 11.4C95.4295 11.88 95.1961 12.5467 95.1961 13.4C95.1961 14.2533 95.4295 14.9333 95.8961 15.44C96.3761 15.9333 96.9561 16.18 97.6361 16.18C98.3161 16.18 98.8895 15.9333 99.3561 15.44C99.8361 14.9467 100.076 14.2733 100.076 13.42ZM116.99 7.84V19H113.57V17.48C113.224 17.9733 112.75 18.3733 112.15 18.68C111.564 18.9733 110.91 19.12 110.19 19.12C109.337 19.12 108.584 18.9333 107.93 18.56C107.277 18.1733 106.77 17.62 106.41 16.9C106.05 16.18 105.87 15.3333 105.87 14.36V7.84H109.27V13.9C109.27 14.6467 109.464 15.2267 109.85 15.64C110.237 16.0533 110.757 16.26 111.41 16.26C112.077 16.26 112.604 16.0533 112.99 15.64C113.377 15.2267 113.57 14.6467 113.57 13.9V7.84H116.99ZM122.867 9.7C123.267 9.08667 123.767 8.60667 124.367 8.26C124.967 7.9 125.634 7.72 126.367 7.72V11.34H125.427C124.574 11.34 123.934 11.5267 123.507 11.9C123.08 12.26 122.867 12.9 122.867 13.82V19H119.447V7.84H122.867V9.7ZM139.022 7.84V19H135.602V17.48C135.255 17.9733 134.782 18.3733 134.182 18.68C133.595 18.9733 132.942 19.12 132.222 19.12C131.368 19.12 130.615 18.9333 129.962 18.56C129.308 18.1733 128.802 17.62 128.442 16.9C128.082 16.18 127.902 15.3333 127.902 14.36V7.84H131.302V13.9C131.302 14.6467 131.495 15.2267 131.882 15.64C132.268 16.0533 132.788 16.26 133.442 16.26C134.108 16.26 134.635 16.0533 135.022 15.64C135.408 15.2267 135.602 14.6467 135.602 13.9V7.84H139.022Z" fill="#02073E"/>
<path fill-rule="evenodd" clip-rule="evenodd" d="M28.4326 6.28911C28.4372 6.37084 28.4312 6.45385 28.4108 6.53728L26.5851 13.8696C26.493 14.2386 26.1632 14.4988 25.7842 14.5009L14.8303 14.5564C14.8289 14.5564 14.8275 14.5564 14.826 14.5564H3.87208C3.49095 14.5564 3.15892 14.2953 3.06692 13.9242L1.24124 6.56393C1.22015 6.47878 1.21414 6.39319 1.21945 6.30933C0.513168 6.08614 -0.000488281 5.42252 -0.000488281 4.64065C-0.000488281 3.67515 0.781211 2.89025 1.74216 2.89025C2.70311 2.89025 3.48481 3.67515 3.48481 4.64065C3.48481 5.18382 3.23683 5.66982 2.84857 5.9915L5.13428 8.30358C5.71203 8.88804 6.5136 9.2235 7.33366 9.2235C8.30341 9.2235 9.22795 8.76075 9.81018 7.98617L13.5667 2.98831C13.2511 2.67178 13.0557 2.23439 13.0557 1.75186C13.0557 0.786768 13.8374 0.00146484 14.7983 0.00146484C15.7593 0.00146484 16.541 0.786768 16.541 1.75186C16.541 2.21978 16.356 2.64425 16.0569 2.95863C16.0579 2.95993 16.0592 2.96123 16.0601 2.96251L19.7893 7.97415C20.3713 8.75602 21.2991 9.2235 22.2716 9.2235C23.0993 9.2235 23.8776 8.89966 24.4628 8.31218L26.7629 6.00225C26.3665 5.681 26.1118 5.19072 26.1118 4.64065C26.1118 3.67515 26.8936 2.89025 27.8545 2.89025C28.8154 2.89025 29.5972 3.67515 29.5972 4.64065C29.5972 5.40145 29.1097 6.04913 28.4326 6.28911ZM26.4069 17.1669C26.4069 16.7072 26.0354 16.3339 25.5771 16.3339H4.11183C3.65353 16.3339 3.28195 16.7072 3.28195 17.1669V19.1668C3.28195 19.6274 3.65353 20.0003 4.11183 20.0003H25.5771C26.0354 20.0003 26.4069 19.6274 26.4069 19.1668V17.1669Z" fill="#02073E"/>
</svg>
